<svg xmlns="http://www.w3.org/2000/svg" viewBox="0 0 400 60" fill="none">
  <g opacity="0.35" stroke="#8A9E85" stroke-width="0.8">
    <!-- center diamond -->
    <polygon points="200,8 207,20 200,32 193,20" fill="#C9A84C" fill-opacity="0.5" stroke="#C9A84C" stroke-width="0.6"/>
    <!-- left branch -->
    <line x1="193" y1="20" x2="120" y2="20"/>
    <line x1="160" y1="20" x2="160" y2="14"/>
    <line x1="140" y1="20" x2="140" y2="16"/>
    <circle cx="120" cy="20" r="2" fill="#8A9E85"/>
    <circle cx="160" cy="14" r="1.5" fill="#8A9E85"/>
    <circle cx="140" cy="16" r="1.2" fill="#8A9E85"/>
    <!-- right branch -->
    <line x1="207" y1="20" x2="280" y2="20"/>
    <line x1="240" y1="20" x2="240" y2="14"/>
    <line x1="260" y1="20" x2="260" y2="16"/>
    <circle cx="280" cy="20" r="2" fill="#8A9E85"/>
    <circle cx="240" cy="14" r="1.5" fill="#8A9E85"/>
    <circle cx="260" cy="16" r="1.2" fill="#8A9E85"/>
    <!-- far left -->
    <line x1="120" y1="20" x2="60" y2="20"/>
    <line x1="90" y1="20" x2="90" y2="17"/>
    <circle cx="60" cy="20" r="1.5" fill="#8A9E85" opacity="0.6"/>
    <!-- far right -->
    <line x1="280" y1="20" x2="340" y2="20"/>
    <line x1="310" y1="20" x2="310" y2="17"/>
    <circle cx="340" cy="20" r="1.5" fill="#8A9E85" opacity="0.6"/>
  </g>
</svg>
